<mxfile host="app.diagrams.net" modified="2021-12-26T18:06:12.079Z" agent="5.0 (Macintosh; Intel Mac OS X 10_15_7) AppleWebKit/537.36 (KHTML, like Gecko) Chrome/96.0.4664.55 Safari/537.36" etag="Tp3Y42Dsgw19NhvVcEqR" version="15.7.3" type="github">
  <diagram id="C5RBs43oDa-KdzZeNtuy" name="Page-1">
    <mxGraphModel dx="1426" dy="712" grid="1" gridSize="10" guides="1" tooltips="1" connect="1" arrows="1" fold="1" page="1" pageScale="1" pageWidth="827" pageHeight="1169" math="0" shadow="0">
      <root>
        <mxCell id="WIyWlLk6GJQsqaUBKTNV-0" />
        <mxCell id="WIyWlLk6GJQsqaUBKTNV-1" parent="WIyWlLk6GJQsqaUBKTNV-0" />
        <mxCell id="WIyWlLk6GJQsqaUBKTNV-2" value="" style="rounded=0;html=1;jettySize=auto;orthogonalLoop=1;fontSize=11;endArrow=block;endFill=0;endSize=8;strokeWidth=1;shadow=0;labelBackgroundColor=none;edgeStyle=orthogonalEdgeStyle;entryX=0.5;entryY=0;entryDx=0;entryDy=0;" parent="WIyWlLk6GJQsqaUBKTNV-1" source="WIyWlLk6GJQsqaUBKTNV-3" target="LyIR2ojxfY4HKInlULS3-10" edge="1">
          <mxGeometry relative="1" as="geometry">
            <mxPoint x="150" y="180" as="targetPoint" />
          </mxGeometry>
        </mxCell>
        <mxCell id="LyIR2ojxfY4HKInlULS3-0" value="Self-healiing" style="edgeLabel;html=1;align=center;verticalAlign=middle;resizable=0;points=[];" vertex="1" connectable="0" parent="WIyWlLk6GJQsqaUBKTNV-2">
          <mxGeometry x="-0.2" y="-1" relative="1" as="geometry">
            <mxPoint x="1" y="5" as="offset" />
          </mxGeometry>
        </mxCell>
        <mxCell id="WIyWlLk6GJQsqaUBKTNV-3" value="Broken UI element" style="rounded=1;whiteSpace=wrap;html=1;fontSize=12;glass=0;strokeWidth=1;shadow=0;" parent="WIyWlLk6GJQsqaUBKTNV-1" vertex="1">
          <mxGeometry x="80" y="80" width="120" height="40" as="geometry" />
        </mxCell>
        <mxCell id="WIyWlLk6GJQsqaUBKTNV-5" value="" style="edgeStyle=orthogonalEdgeStyle;rounded=0;html=1;jettySize=auto;orthogonalLoop=1;fontSize=11;endArrow=block;endFill=0;endSize=8;strokeWidth=1;shadow=0;labelBackgroundColor=none;" parent="WIyWlLk6GJQsqaUBKTNV-1" target="WIyWlLk6GJQsqaUBKTNV-7" edge="1">
          <mxGeometry y="10" relative="1" as="geometry">
            <mxPoint as="offset" />
            <mxPoint x="230" y="210" as="sourcePoint" />
          </mxGeometry>
        </mxCell>
        <mxCell id="LyIR2ojxfY4HKInlULS3-2" value="" style="edgeStyle=orthogonalEdgeStyle;rounded=0;orthogonalLoop=1;jettySize=auto;html=1;" edge="1" parent="WIyWlLk6GJQsqaUBKTNV-1" source="WIyWlLk6GJQsqaUBKTNV-7" target="LyIR2ojxfY4HKInlULS3-1">
          <mxGeometry relative="1" as="geometry" />
        </mxCell>
        <mxCell id="WIyWlLk6GJQsqaUBKTNV-7" value="Compare old locator with HTML/XML document" style="rounded=1;whiteSpace=wrap;html=1;fontSize=12;glass=0;strokeWidth=1;shadow=0;" parent="WIyWlLk6GJQsqaUBKTNV-1" vertex="1">
          <mxGeometry x="270" y="190" width="160" height="40" as="geometry" />
        </mxCell>
        <mxCell id="LyIR2ojxfY4HKInlULS3-4" value="" style="edgeStyle=orthogonalEdgeStyle;rounded=0;orthogonalLoop=1;jettySize=auto;html=1;" edge="1" parent="WIyWlLk6GJQsqaUBKTNV-1" source="LyIR2ojxfY4HKInlULS3-1" target="LyIR2ojxfY4HKInlULS3-3">
          <mxGeometry relative="1" as="geometry" />
        </mxCell>
        <mxCell id="LyIR2ojxfY4HKInlULS3-1" value="Deliver a list of locators leverage from highest to lowest similarity score" style="rounded=1;whiteSpace=wrap;html=1;fontSize=12;glass=0;strokeWidth=1;shadow=0;" vertex="1" parent="WIyWlLk6GJQsqaUBKTNV-1">
          <mxGeometry x="460" y="180" width="160" height="60" as="geometry" />
        </mxCell>
        <mxCell id="LyIR2ojxfY4HKInlULS3-7" value="" style="edgeStyle=orthogonalEdgeStyle;rounded=0;orthogonalLoop=1;jettySize=auto;html=1;" edge="1" parent="WIyWlLk6GJQsqaUBKTNV-1" source="LyIR2ojxfY4HKInlULS3-3" target="LyIR2ojxfY4HKInlULS3-6">
          <mxGeometry relative="1" as="geometry" />
        </mxCell>
        <mxCell id="LyIR2ojxfY4HKInlULS3-3" value="Auto-heal the broken UI element with highest score founded locator" style="rounded=1;whiteSpace=wrap;html=1;fontSize=12;glass=0;strokeWidth=1;shadow=0;" vertex="1" parent="WIyWlLk6GJQsqaUBKTNV-1">
          <mxGeometry x="650" y="185" width="160" height="50" as="geometry" />
        </mxCell>
        <mxCell id="LyIR2ojxfY4HKInlULS3-16" value="" style="edgeStyle=orthogonalEdgeStyle;rounded=0;orthogonalLoop=1;jettySize=auto;html=1;" edge="1" parent="WIyWlLk6GJQsqaUBKTNV-1" source="LyIR2ojxfY4HKInlULS3-6" target="LyIR2ojxfY4HKInlULS3-15">
          <mxGeometry relative="1" as="geometry" />
        </mxCell>
        <mxCell id="LyIR2ojxfY4HKInlULS3-6" value="Apply new UI element (newly founded locator)" style="rounded=1;whiteSpace=wrap;html=1;fontSize=12;glass=0;strokeWidth=1;shadow=0;" vertex="1" parent="WIyWlLk6GJQsqaUBKTNV-1">
          <mxGeometry x="840" y="190" width="160" height="40" as="geometry" />
        </mxCell>
        <mxCell id="LyIR2ojxfY4HKInlULS3-10" value="&lt;span&gt;Get old locator from back end&lt;/span&gt;" style="rounded=1;whiteSpace=wrap;html=1;" vertex="1" parent="WIyWlLk6GJQsqaUBKTNV-1">
          <mxGeometry x="50" y="190" width="180" height="40" as="geometry" />
        </mxCell>
        <mxCell id="LyIR2ojxfY4HKInlULS3-13" value="" style="edgeStyle=orthogonalEdgeStyle;rounded=0;orthogonalLoop=1;jettySize=auto;html=1;" edge="1" parent="WIyWlLk6GJQsqaUBKTNV-1" source="LyIR2ojxfY4HKInlULS3-12" target="WIyWlLk6GJQsqaUBKTNV-3">
          <mxGeometry relative="1" as="geometry" />
        </mxCell>
        <mxCell id="LyIR2ojxfY4HKInlULS3-12" value="" style="ellipse;shape=doubleEllipse;html=1;dashed=0;whitespace=wrap;aspect=fixed;" vertex="1" parent="WIyWlLk6GJQsqaUBKTNV-1">
          <mxGeometry x="125" y="20" width="30" height="30" as="geometry" />
        </mxCell>
        <mxCell id="LyIR2ojxfY4HKInlULS3-15" value="" style="ellipse;html=1;shape=endState;fillColor=#000000;strokeColor=#ff0000;" vertex="1" parent="WIyWlLk6GJQsqaUBKTNV-1">
          <mxGeometry x="1030" y="195" width="30" height="30" as="geometry" />
        </mxCell>
      </root>
    </mxGraphModel>
  </diagram>
</mxfile>
